<?xml version="1.0" standalone="no"?>
<!DOCTYPE svg PUBLIC "-//W3C//DTD SVG 20010904//EN"
 "http://www.w3.org/TR/2001/REC-SVG-20010904/DTD/svg10.dtd">
<svg version="1.0" xmlns="http://www.w3.org/2000/svg"
 width="116.000000pt" height="116.000000pt" viewBox="0 0 116.000000 116.000000"
 preserveAspectRatio="xMidYMid meet">
<metadata>
Created by potrace 1.14, written by Peter Selinger 2001-2017
</metadata>
<g transform="translate(0.000000,116.000000) scale(0.100000,-0.100000)"
fill="#000000" stroke="none">
<path d="M185 970 c-53 -26 -70 -57 -99 -181 -13 -57 -39 -166 -56 -241 -18
-76 -30 -144 -27 -153 5 -10 20 -15 51 -15 32 0 48 -5 55 -17 9 -16 10 -17 11
-1 0 9 9 20 20 23 12 4 20 15 20 27 0 75 61 160 128 177 75 20 143 -6 186 -72
57 -89 28 -218 -61 -269 -39 -23 -110 -25 -150 -5 -36 19 -73 12 -73 -14 0
-51 167 -83 237 -46 66 35 132 125 133 180 0 38 34 12 49 -38 28 -91 125 -165
217 -165 92 0 191 76 217 166 14 49 14 49 61 52 27 2 49 9 52 16 3 7 -11 84
-31 172 -20 87 -38 170 -41 183 -19 92 -36 149 -52 170 -45 61 -132 91 -158
56 -16 -22 -2 -45 28 -45 32 0 78 -30 89 -58 10 -25 99 -407 99 -424 0 -5 -9
-8 -20 -8 -13 0 -20 7 -20 20 0 42 -71 150 -98 150 -6 0 -16 -9 -22 -20 -9
-18 -6 -26 18 -55 122 -138 5 -349 -169 -304 -85 22 -144 133 -118 223 6 22 5
34 -6 46 -8 9 -15 23 -15 30 0 24 -29 -23 -36 -57 -9 -49 -37 -44 -51 10 -24
89 -105 162 -192 174 -101 14 -215 -63 -244 -163 -8 -30 -21 -50 -31 -52 -21
-4 -21 4 9 126 14 56 27 117 30 135 11 59 36 152 47 175 14 26 37 41 76 48 34
6 45 17 40 40 -5 27 -54 29 -103 4z"/>
</g>
</svg>
