<svg width="74" height="24" viewBox="0 0 74 24" fill="none" xmlns="http://www.w3.org/2000/svg">
<path d="M0.00496827 1.6159C0.00487772 1.26526 0.135804 0.928506 0.369742 0.677667C0.60368 0.426828 0.922049 0.281823 1.25676 0.273668H8.39001C13.4469 0.273668 16.7751 3.0934 16.7751 7.71317V7.7756C16.7751 12.8324 12.7415 15.4544 7.97274 15.4544H2.53836V22.5506C2.55394 22.7346 2.53277 22.9201 2.47619 23.0952C2.41961 23.2702 2.32887 23.431 2.20973 23.5674C2.09058 23.7037 1.94565 23.8126 1.78416 23.887C1.62266 23.9615 1.44812 24 1.27166 24C1.0952 24 0.920671 23.9615 0.759173 23.887C0.597674 23.8126 0.452744 23.7037 0.333602 23.5674C0.21446 23.431 0.123708 23.2702 0.0671295 23.0952C0.0105515 22.9201 -0.0106138 22.7346 0.00496827 22.5506V1.6159ZM8.07209 13.0613C11.7778 13.0613 14.2119 10.9803 14.2119 7.85884V7.79641C14.2119 4.44603 11.8175 2.70841 8.25092 2.70841H2.58804V13.0197L8.07209 13.0613Z" fill="white"/>
<path d="M21.5935 1.44943C21.5779 1.26534 21.5991 1.07987 21.6556 0.904814C21.7122 0.729759 21.803 0.568951 21.9221 0.432622C22.0412 0.296293 22.1862 0.187425 22.3477 0.112944C22.5092 0.0384633 22.6837 0 22.8602 0C23.0366 0 23.2112 0.0384633 23.3727 0.112944C23.5342 0.187425 23.6791 0.296293 23.7982 0.432622C23.9174 0.568951 24.0081 0.729759 24.0647 0.904814C24.1213 1.07987 24.1425 1.26534 24.1269 1.44943V22.5506C24.1425 22.7347 24.1213 22.9201 24.0647 23.0952C24.0081 23.2702 23.9174 23.431 23.7982 23.5674C23.6791 23.7037 23.5342 23.8126 23.3727 23.8871C23.2112 23.9615 23.0366 24 22.8602 24C22.6837 24 22.5092 23.9615 22.3477 23.8871C22.1862 23.8126 22.0412 23.7037 21.9221 23.5674C21.803 23.431 21.7122 23.2702 21.6556 23.0952C21.5991 22.9201 21.5779 22.7347 21.5935 22.5506V1.44943Z" fill="white"/>
<path d="M30.674 1.48064C30.6816 1.13643 30.8163 0.808703 31.0497 0.566213C31.2831 0.323724 31.597 0.185319 31.9258 0.180032H32.2735C32.5316 0.185565 32.7843 0.258979 33.0082 0.393523C33.2322 0.528068 33.4202 0.719424 33.5551 0.949995L47.1559 19.1065V1.41821C47.1559 1.07603 47.2857 0.747861 47.5168 0.5059C47.7478 0.263939 48.0611 0.128007 48.3879 0.128007C48.7146 0.128007 49.0279 0.263939 49.259 0.5059C49.49 0.747861 49.6198 1.07603 49.6198 1.41821V22.5922C49.6252 22.7532 49.5993 22.9137 49.5435 23.0638C49.4878 23.214 49.4034 23.3507 49.2956 23.4655C49.1877 23.5804 49.0587 23.6711 48.9163 23.732C48.7739 23.793 48.6211 23.8229 48.4673 23.82H48.3382C48.0744 23.8009 47.8184 23.7176 47.5908 23.5767C47.3631 23.4358 47.17 23.2412 47.0268 23.0084L33.1179 4.42523V22.5922C33.1158 22.9275 32.991 23.2493 32.7692 23.4912C32.5474 23.7331 32.2456 23.8768 31.9258 23.8928C31.6008 23.8873 31.291 23.7475 31.064 23.5039C30.8369 23.2603 30.711 22.9326 30.7137 22.5922V1.48064H30.674Z" fill="white"/>
<path d="M55.9384 1.44943C55.9228 1.26534 55.944 1.07987 56.0005 0.904814C56.0571 0.729759 56.1479 0.568951 56.267 0.432622C56.3862 0.296293 56.5311 0.187425 56.6926 0.112944C56.8541 0.0384633 57.0286 0 57.2051 0C57.3815 0 57.5561 0.0384633 57.7176 0.112944C57.8791 0.187425 58.024 0.296293 58.1431 0.432622C58.2623 0.568951 58.353 0.729759 58.4096 0.904814C58.4662 1.07987 58.4874 1.26534 58.4718 1.44943V14.2787L71.2282 0.575418C71.4899 0.291873 71.8455 0.124284 72.2216 0.107197C72.5468 0.120472 72.8548 0.263804 73.0821 0.507685C73.3094 0.751565 73.4388 1.07743 73.4436 1.41821C73.4366 1.59544 73.3961 1.76944 73.3245 1.93018C73.2529 2.09091 73.1516 2.23519 73.0264 2.35466L65.0785 10.5953L73.6523 21.5829C73.8764 21.8548 73.9998 22.2018 74 22.561C73.9961 22.7409 73.9583 22.9182 73.8887 23.0827C73.8191 23.2473 73.719 23.3957 73.5943 23.5195C73.4696 23.6433 73.3228 23.7401 73.1622 23.8041C73.0016 23.8682 72.8305 23.8983 72.6588 23.8928C72.4588 23.8843 72.2639 23.8249 72.0908 23.7197C71.9177 23.6146 71.7716 23.4669 71.6653 23.2893L63.3001 12.3746L58.4718 17.4314V22.5298C58.4718 22.7033 58.4391 22.8751 58.3757 23.0354C58.3123 23.1958 58.2194 23.3414 58.1022 23.4641C57.9851 23.5868 57.846 23.6842 57.6929 23.7506C57.5398 23.817 57.3757 23.8512 57.21 23.8512C57.0443 23.8512 56.8803 23.817 56.7272 23.7506C56.5741 23.6842 56.435 23.5868 56.3179 23.4641C56.2007 23.3414 56.1078 23.1958 56.0444 23.0354C55.9809 22.8751 55.9483 22.7033 55.9483 22.5298V1.44943H55.9384Z" fill="white"/>
</svg>
