<svg width="12" height="8" viewBox="0 0 12 8" fill="none" xmlns="http://www.w3.org/2000/svg">
<path d="M11.9858 5.52944L10.961 1.31324C10.8897 0.849163 10.4457 0 9.25635 0C9.17749 0 9.10187 0.0312088 9.04611 0.0867608C8.99035 0.142313 8.95902 0.217657 8.95902 0.29622C8.95902 0.374782 8.99035 0.450127 9.04611 0.505679C9.10187 0.561231 9.17749 0.59244 9.25635 0.59244C10.2177 0.59244 10.3604 1.32904 10.3743 1.41001L11.3178 5.30036H10.9035C10.8607 4.96099 10.7446 4.63489 10.5632 4.34445C10.3819 4.05401 10.1396 3.80613 9.85298 3.61783C9.76323 3.65548 9.6866 3.71863 9.63266 3.79941C9.57872 3.88019 9.54987 3.97501 9.54971 4.07204C9.5508 4.08913 9.5508 4.10628 9.54971 4.12338C9.79075 4.28808 9.98857 4.50802 10.1265 4.76473C10.2645 5.02143 10.3386 5.30739 10.3426 5.59855C10.3414 5.69788 10.3321 5.79694 10.3148 5.89477C10.2499 6.31428 10.0365 6.69681 9.71311 6.97315C9.38972 7.24949 8.97773 7.4014 8.55169 7.4014C8.12564 7.4014 7.71366 7.24949 7.39027 6.97315C7.06688 6.69681 6.85343 6.31428 6.78854 5.89477C6.77127 5.79694 6.76199 5.69788 6.76079 5.59855C6.76389 5.32458 6.82822 5.05474 6.9491 4.80864C6.84884 4.80163 6.755 4.75694 6.68655 4.68362C6.61811 4.61029 6.58017 4.51381 6.58042 4.41368C6.58075 4.37781 6.56727 4.34318 6.54275 4.31691C6.35096 4.61503 6.22964 4.95266 6.18795 5.30431H5.81926C5.75601 4.72347 5.47963 4.18639 5.04317 3.79618C4.60671 3.40597 4.04096 3.19014 3.45453 3.19014C2.8681 3.19014 2.30234 3.40597 1.86589 3.79618C1.42943 4.18639 1.15304 4.72347 1.0898 5.30431H0.679485L1.62498 1.41001C1.63688 1.32904 1.78554 0.59244 2.74293 0.59244C2.82178 0.59244 2.89741 0.561231 2.95317 0.505679C3.00893 0.450127 3.04025 0.374782 3.04025 0.29622C3.04025 0.217657 3.00893 0.142313 2.95317 0.0867608C2.89741 0.0312088 2.82178 0 2.74293 0C1.55362 0 1.10962 0.849163 1.03826 1.31324L0.0114929 5.52944C-0.00120812 5.57235 -0.00341914 5.61767 0.00504452 5.6616C0.0135082 5.70554 0.0324008 5.74682 0.0601447 5.782C0.0878886 5.81718 0.123678 5.84523 0.164525 5.86382C0.205371 5.88241 0.250089 5.89099 0.294944 5.88885H1.08781C1.10394 6.011 1.12912 6.13179 1.16314 6.25024C1.17566 6.22859 1.18248 6.20413 1.18296 6.17915C1.18296 6.0744 1.22472 5.97394 1.29907 5.89987C1.37342 5.8258 1.47425 5.78419 1.57939 5.78419C1.61158 5.78461 1.64357 5.78926 1.67454 5.79801C1.6659 5.72922 1.66127 5.65998 1.66066 5.59066C1.66119 5.49138 1.66981 5.39232 1.68643 5.29444C1.74993 4.87357 1.96291 4.48939 2.28665 4.21171C2.61038 3.93404 3.02338 3.78133 3.45056 3.78133C3.87774 3.78133 4.29074 3.93404 4.61448 4.21171C4.93822 4.48939 5.1512 4.87357 5.2147 5.29444C5.23132 5.39232 5.23994 5.49138 5.24047 5.59066C5.23735 6.06107 5.0484 6.51134 4.71451 6.84398C4.38063 7.17662 3.92868 7.36487 3.45651 7.36797C3.07006 7.37326 2.69235 7.25336 2.38019 7.02633C2.30866 7.08823 2.21725 7.12256 2.12251 7.1231C2.08342 7.12362 2.04612 7.13945 2.01867 7.16717C1.99121 7.19489 1.97582 7.23227 1.97583 7.27121C1.97529 7.32643 1.96313 7.38092 1.94015 7.43117C2.36421 7.78132 2.89781 7.97273 3.44858 7.97226C4.03038 7.97475 4.59292 7.76472 5.02978 7.38189C5.46664 6.99906 5.74751 6.46999 5.81926 5.89477H6.18002C6.24531 6.47383 6.52244 7.00862 6.95848 7.39697C7.39452 7.78532 7.95889 8 8.54376 8C9.12863 8 9.693 7.78532 10.129 7.39697C10.5651 7.00862 10.8422 6.47383 10.9075 5.89477H11.7004C11.7462 5.89807 11.7921 5.89006 11.8341 5.87145C11.8761 5.85284 11.9128 5.82421 11.9411 5.78808C11.9693 5.75196 11.9881 5.70946 11.9959 5.66434C12.0037 5.61923 12.0003 5.57289 11.9858 5.52944Z" fill="black"/>
</svg>
